<?xml version="1.0" encoding="UTF-8"?>
<svg xmlns="http://www.w3.org/2000/svg" viewBox="0 0 2000 2000">
  <defs>
    <style>
      .cls-1 {
        stroke-linejoin: round;
      }

      .cls-1, .cls-2 {
        fill: none;
        stroke: #231f20;
        stroke-width: 8px;
      }

      .cls-3 {
        fill: #fff;
      }

      .cls-2 {
        stroke-linecap: round;
        stroke-miterlimit: 10;
      }
    </style>
  </defs>
  <g id="Layer_2" data-name="Layer 2">
    <rect class="cls-3" width="2000" height="2000"/>
  </g>
  <g id="Layer_28" data-name="Layer 28">
    <g>
      <polyline class="cls-1" points="2.25 1099.67 315 1099.67 315 894.42 354.33 894.42 354.33 833.76 442.33 833.76 442.33 1151.57 475 1151.57 475 1011 569.67 1071.67 569.67 1260.16 544.54 1260.16 544.54 1119.67 596.33 1119.67 596.33 790 655.33 849 655.33 1003.67 701 1003.67 701 1197.93 760.67 1197.93 760.67 939.67 831 882.33 876.67 941 876.67 1058.33 966.33 1058.33 966.33 1091.67 933 1091.67 933 951.67 1005.67 879 1005.67 1147.36 1041.67 1147.36 1041.67 732.97 1082.33 732.97 1082.33 610.06 1166.89 610.06 1166.89 1202.98 1140.2 1202.98 1140.2 1000 1203.67 1000 1203.67 879.67 1247.67 835.67 1247.67 527.89 1317.67 527.89 1317.67 994.33 1387.67 994.33 1387.67 1084 1355.67 1084 1355.67 744.49 1422.67 677.49 1422.67 1172.64 1456.33 1172.64 1456.33 971 1526.67 1041.33 1526.67 1099.67 1557.67 1099.67 1557.67 1016.33 1591 1016.33 1591 881.87 1647.67 881.87 1647.67 1126.92 1615.67 1126.92 1615.67 994.5 1737 994.5 1737 907.15 1787.33 856.82 1787.33 1099.67 2000 1099.67"/>
      <polyline class="cls-1" points="315 894.42 260.78 948.64 260.78 1099.67"/>
      <polyline class="cls-1" points="354.33 833.76 327.07 861.02 327.07 894.42"/>
      <polyline class="cls-2" points="475 1011 409.06 1076.94 409.06 1291.8"/>
      <polyline class="cls-2" points="596.33 790 544.54 841.79 544.54 1055.56"/>
      <line class="cls-2" x1="655.33" y1="1003.67" x2="655.33" y2="1151.4"/>
      <line class="cls-2" x1="831" y1="882.33" x2="831" y2="1161.58"/>
      <line class="cls-2" x1="760.67" y1="1197.93" x2="760.67" y2="1291.8"/>
      <line class="cls-2" x1="655.33" y1="1024.96" x2="701" y2="1024.96"/>
      <line class="cls-2" x1="655.33" y1="1047.27" x2="701" y2="1047.27"/>
      <line class="cls-2" x1="655.33" y1="1069.58" x2="701" y2="1069.58"/>
      <line class="cls-2" x1="655.33" y1="1091.88" x2="701" y2="1091.88"/>
      <line class="cls-2" x1="655.33" y1="1114.19" x2="701" y2="1114.19"/>
      <line class="cls-2" x1="655.33" y1="1136.5" x2="701" y2="1136.5"/>
      <path class="cls-2" d="m1005.67,879s26.51,26.51,34.45,34.45"/>
      <polyline class="cls-1" points="1166.89 610.06 1212.54 655.71 1212.54 870.79"/>
      <polyline class="cls-2" points="1422.67 677.49 1481.83 736.65 1481.83 996.5"/>
      <polyline class="cls-2" points="1591 881.87 1544.24 928.63 1544.24 1139.26"/>
      <line class="cls-2" x1="1591" y1="1016.33" x2="1591" y2="1066.08"/>
      <line class="cls-2" x1="1737" y1="994.5" x2="1737" y2="1081.72"/>
      <polyline class="cls-2" points="1787.33 856.82 1833.28 902.76 1833.28 1099.67"/>
      <polyline class="cls-2" points="1317.67 527.89 1360.01 570.23 1360.01 735.9"/>
      <line class="cls-2" x1="933" y1="1091.67" x2="933" y2="1209.78"/>
      <polyline class="cls-2" points="442.33 833.76 489 880.42 489 1019.97"/>
      <polyline class="cls-2" points="1082.33 610.06 988.61 703.78 988.61 894.42"/>
      <line class="cls-2" x1="1082.33" y1="732.97" x2="1082.33" y2="1167.4"/>
      <line class="cls-2" x1="1082.33" y1="631.89" x2="1166.89" y2="631.89"/>
      <line class="cls-2" x1="1082.33" y1="657.48" x2="1166.89" y2="657.48"/>
      <line class="cls-2" x1="1082.33" y1="683.06" x2="1166.89" y2="683.06"/>
      <line class="cls-2" x1="1082.33" y1="708.65" x2="1166.89" y2="708.65"/>
      <line class="cls-2" x1="1082.33" y1="734.24" x2="1166.89" y2="734.24"/>
      <line class="cls-2" x1="1082.33" y1="759.82" x2="1166.89" y2="759.82"/>
      <line class="cls-2" x1="1082.33" y1="785.41" x2="1166.89" y2="785.41"/>
      <line class="cls-2" x1="1082.33" y1="811" x2="1166.89" y2="811"/>
      <line class="cls-2" x1="1082.33" y1="836.58" x2="1166.89" y2="836.58"/>
      <line class="cls-2" x1="1247.67" y1="835.67" x2="1247.67" y2="1114.19"/>
      <path class="cls-2" d="m1456.33,971s-21.01,21.01-31.2,31.2"/>
      <line class="cls-2" x1="1754.47" y1="889.69" x2="1754.47" y2="1096.38"/>
      <line class="cls-2" x1="1772.82" y1="871.58" x2="1772.82" y2="1078.28"/>
      <line class="cls-2" x1="1282.26" y1="527.89" x2="1282.26" y2="993.04"/>
      <line class="cls-1" x1="1247.67" y1="800.87" x2="1317.67" y2="800.87"/>
      <polyline class="cls-2" points="1041.67 732.97 1022.89 759.82 1022.89 894.42"/>
      <line class="cls-2" x1="876.67" y1="1058.33" x2="876.67" y2="1099.67"/>
      <polyline class="cls-2" points="701 1003.67 743.68 1046.35 743.68 1197.93"/>
      <line class="cls-2" x1="354.33" y1="894.42" x2="354.33" y2="978.24"/>
    </g>
  </g>
</svg>